<svg xmlns="http://www.w3.org/2000/svg" viewBox="0 0 160 160" role="img" aria-label="Nova 星夜头像"><defs><linearGradient id="sky" x2="1" y2="1"><stop stop-color="#b8cffa"/><stop offset="1" stop-color="#ab86ca"/></linearGradient></defs><circle cx="80" cy="80" r="78" fill="url(#sky)"/><circle cx="80" cy="66" r="27" fill="#fff4e6"/><path d="M29 143Q30 102 80 101Q129 102 132 143" fill="#f3edff"/><path d="M52 67Q43 24 81 30Q116 29 108 65Q94 57 90 46Q79 67 52 67" fill="#55517c"/><path d="m124 25 3 9 10 3-10 3-3 9-3-9-10-3 10-3ZM30 73l2 6 7 2-7 2-2 7-2-7-7-2 7-2Z" fill="#fff4b7"/><circle cx="72" cy="70" r="2" fill="#716681"/><circle cx="91" cy="70" r="2" fill="#716681"/><path d="M75 83q7 5 13-1" fill="none" stroke="#be8d96" stroke-width="2" stroke-linecap="round"/></svg>
